<svg width="87" height="87" viewBox="0 0 87 87" fill="none" xmlns="http://www.w3.org/2000/svg">
<g clip-path="url(#clip0_28_30)">
<g filter="url(#filter0_d_28_30)">
<circle cx="43.5" cy="42.1512" r="39.8023" stroke="#FF6700" stroke-width="2" shape-rendering="crispEdges"/>
</g>
<mask id="path-2-inside-1_28_30" fill="white">
<path d="M36.9435 27.9057L35.8702 29.2503L38.2476 40.7024L36.9435 27.9057ZM24.7967 70.6248L23.8673 71.4635H27.8973L24.7967 70.6248ZM27.7894 57.7152L26.8245 58.7068L23.8673 71.4635L27.7894 57.7152ZM36.2687 27.9057L35.2034 29.2503L26.8245 58.7068L36.2687 27.9057ZM23.7405 70.6248L22.8236 71.4635H26.8245L23.7405 70.6248ZM13.3834 27.9057L12.5892 29.2503L22.8236 71.4635L13.3834 27.9057ZM49.237 70.6248L48.0181 71.4635H52.0191L49.237 70.6248ZM51.3495 57.099L50.1056 58.0979L48.0181 71.4635L51.3495 57.099ZM57.951 27.9057L56.6289 29.2503L50.1056 58.0979L57.951 27.9057ZM48.1514 70.6248L46.9454 71.4635H50.9754L48.1514 70.6248ZM39.3494 39.495L38.2476 40.7024L46.9454 71.4635L39.3494 39.495ZM28.875 70.6248H24.7967L27.8973 71.4635L28.875 70.6248ZM24.7967 70.6248L27.7894 57.7152L23.8673 71.4635L24.7967 70.6248ZM27.7894 57.7152L36.2687 27.9057L26.8245 58.7068L27.7894 57.7152ZM27.7894 70.6248H23.7405L26.8245 71.4635L27.7894 70.6248ZM23.7405 70.6248L13.3834 27.9057L22.8236 71.4635L23.7405 70.6248ZM53.2859 70.6248H49.237L52.0191 71.4635L53.2859 70.6248ZM49.237 70.6248L51.3495 57.099L48.0181 71.4635L49.237 70.6248ZM51.3495 57.099L57.951 27.9057L50.1056 58.0979L51.3495 57.099ZM52.2297 70.6248H48.1514L50.9754 71.4635L52.2297 70.6248ZM48.1514 70.6248L39.3494 39.495L46.9454 71.4635L48.1514 70.6248ZM39.3494 39.495L36.9435 27.9057L38.2476 40.7024L39.3494 39.495ZM25.7487 69.7657L24.7967 70.6248H28.875L25.7487 69.7657ZM28.7777 56.6995L27.7894 57.7152L24.7967 70.6248L28.7777 56.6995ZM37.3598 26.5284L36.2687 27.9057L27.7894 57.7152L37.3598 26.5284ZM24.6796 69.7657L23.7405 70.6248H27.7894L24.6796 69.7657ZM14.1969 26.5284L13.3834 27.9057L23.7405 70.6248L14.1969 26.5284ZM50.4854 69.7657L49.237 70.6248H53.2859L50.4854 69.7657ZM52.6235 56.0759L51.3495 57.099L49.237 70.6248L52.6235 56.0759ZM59.3051 26.5284L57.951 27.9057L51.3495 57.099L59.3051 26.5284ZM49.3867 69.7657L48.1514 70.6248H52.2297L49.3867 69.7657ZM40.4779 38.2583L39.3494 39.495L48.1514 70.6248L40.4779 38.2583ZM38.0428 26.5284L36.9435 27.9057L39.3494 39.495L38.0428 26.5284ZM29.8764 69.7657H25.7487L28.875 70.6248L29.8764 69.7657ZM25.7487 69.7657L28.7777 56.6995L24.7967 70.6248L25.7487 69.7657ZM28.7777 56.6995L37.3598 26.5284L27.7894 57.7152L28.7777 56.6995ZM28.7777 69.7657H24.6796L27.7894 70.6248L28.7777 69.7657ZM24.6796 69.7657L14.1969 26.5284L23.7405 70.6248L24.6796 69.7657ZM54.5835 69.7657H50.4854L53.2859 70.6248L54.5835 69.7657ZM50.4854 69.7657L52.6235 56.0759L49.237 70.6248L50.4854 69.7657ZM52.6235 56.0759L59.3051 26.5284L51.3495 57.099L52.6235 56.0759ZM53.5144 69.7657H49.3867L52.2297 70.6248L53.5144 69.7657ZM49.3867 69.7657L40.4779 38.2583L48.1514 70.6248L49.3867 69.7657ZM40.4779 38.2583L38.0428 26.5284L39.3494 39.495L40.4779 38.2583ZM26.724 68.8856L25.7487 69.7657H29.8764L26.724 68.8856ZM29.7902 55.6589L28.7777 56.6995L25.7487 69.7657L29.7902 55.6589ZM38.4777 25.1173L37.3598 26.5284L28.7777 56.6995L38.4777 25.1173ZM25.6418 68.8856L24.6796 69.7657H28.7777L25.6418 68.8856ZM15.0304 25.1173L14.1969 26.5284L24.6796 69.7657L15.0304 25.1173ZM51.7645 68.8856L50.4854 69.7657H54.5835L51.7645 68.8856ZM53.9289 55.0276L52.6235 56.0759L50.4854 69.7657L53.9289 55.0276ZM60.6925 25.1173L59.3051 26.5284L52.6235 56.0759L60.6925 25.1173ZM50.6523 68.8856L49.3867 69.7657H53.5144L50.6523 68.8856ZM41.6341 36.9912L40.4779 38.2583L49.3867 69.7657L41.6341 36.9912ZM39.1691 25.1173L38.0428 26.5284L40.4779 38.2583L39.1691 25.1173ZM30.9024 68.8856H26.724L29.8764 69.7657L30.9024 68.8856ZM26.724 68.8856L29.7902 55.6589L25.7487 69.7657L26.724 68.8856ZM29.7902 55.6589L38.4777 25.1173L28.7777 56.6995L29.7902 55.6589ZM29.7902 68.8856H25.6418L28.7777 69.7657L29.7902 68.8856ZM25.6418 68.8856L15.0304 25.1173L24.6796 69.7657L25.6418 68.8856ZM55.9129 68.8856H51.7645L54.5835 69.7657L55.9129 68.8856ZM51.7645 68.8856L53.9289 55.0276L50.4854 69.7657L51.7645 68.8856ZM53.9289 55.0276L60.6925 25.1173L52.6235 56.0759L53.9289 55.0276ZM54.8307 68.8856H50.6523L53.5144 69.7657L54.8307 68.8856ZM50.6523 68.8856L41.6341 36.9912L49.3867 69.7657L50.6523 68.8856ZM41.6341 36.9912L39.1691 25.1173L40.4779 38.2583L41.6341 36.9912ZM27.7236 67.9835L26.724 68.8856H30.9024L27.7236 67.9835ZM30.8279 54.5924L29.7902 55.6589L26.724 68.8856L30.8279 54.5924ZM39.6234 23.6711L38.4777 25.1173L29.7902 55.6589L39.6234 23.6711ZM26.628 67.9835L25.6418 68.8856H29.7902L26.628 67.9835ZM15.8847 23.6711L15.0304 25.1173L25.6418 68.8856L15.8847 23.6711ZM53.0754 67.9835L51.7645 68.8856H55.9129L53.0754 67.9835ZM55.2667 53.9533L53.9289 55.0276L51.7645 68.8856L55.2667 53.9533ZM62.1144 23.6711L60.6925 25.1173L53.9289 55.0276L62.1144 23.6711ZM51.9493 67.9835L50.6523 68.8856H54.8307L51.9493 67.9835ZM42.819 35.6927L41.6341 36.9912L50.6523 68.8856L42.819 35.6927ZM40.3234 23.6711L39.1691 25.1173L41.6341 36.9912L40.3234 23.6711ZM31.954 67.9835H27.7236L30.9024 68.8856L31.954 67.9835ZM27.7236 67.9835L30.8279 54.5924L26.724 68.8856L27.7236 67.9835ZM30.8279 67.9835H26.628L29.7902 68.8856L30.8279 67.9835ZM57.2753 67.9835H53.0754L55.9129 68.8856L57.2753 67.9835ZM53.0754 67.9835L55.2667 53.9533L51.7645 68.8856L53.0754 67.9835ZM56.1797 67.9835H51.9493L54.8307 68.8856L56.1797 67.9835ZM51.9493 67.9835L42.819 35.6927L50.6523 68.8856L51.9493 67.9835ZM30.8279 54.5924L39.6234 23.6711L29.7902 55.6589L30.8279 54.5924ZM26.628 67.9835L15.8847 23.6711L25.6418 68.8856L26.628 67.9835ZM55.2667 53.9533L62.1144 23.6711L53.9289 55.0276L55.2667 53.9533ZM42.819 35.6927L40.3234 23.6711L41.6341 36.9912L42.819 35.6927ZM28.7484 67.0587L27.7236 67.9835H31.954L28.7484 67.0587ZM31.8918 53.4991L30.8279 54.5924L27.7236 67.9835L31.8918 53.4991ZM27.6389 67.0587L26.628 67.9835H30.8279L27.6389 67.0587ZM54.4193 67.0587L53.0754 67.9835H57.2753L54.4193 67.0587ZM56.6382 52.8519L55.2667 53.9533L53.0754 67.9835L56.6382 52.8519ZM53.2791 67.0587L51.9493 67.9835H56.1797L53.2791 67.0587ZM44.0338 34.3614L42.819 35.6927L51.9493 67.9835L44.0338 34.3614ZM40.798 22.1885L39.6234 23.6711L30.8279 54.5924L40.798 22.1885ZM16.7604 22.1885L15.8847 23.6711L26.628 67.9835L16.7604 22.1885ZM63.5721 22.1885L62.1144 23.6711L55.2667 53.9533L63.5721 22.1885ZM41.5068 22.1885L40.3234 23.6711L42.819 35.6927L41.5068 22.1885ZM33.032 67.0587H28.7484L31.954 67.9835L33.032 67.0587ZM28.7484 67.0587L31.8918 53.4991L27.7236 67.9835L28.7484 67.0587ZM31.8918 53.4991L40.798 22.1885L30.8279 54.5924L31.8918 53.4991ZM31.8918 67.0587H27.6389L30.8279 67.9835L31.8918 67.0587ZM27.6389 67.0587L16.7604 22.1885L26.628 67.9835L27.6389 67.0587ZM58.6721 67.0587H54.4193L57.2753 67.9835L58.6721 67.0587ZM54.4193 67.0587L56.6382 52.8519L53.0754 67.9835L54.4193 67.0587ZM56.6382 52.8519L63.5721 22.1885L55.2667 53.9533L56.6382 52.8519ZM57.5627 67.0587H53.2791L56.1797 67.9835L57.5627 67.0587ZM53.2791 67.0587L44.0338 34.3614L51.9493 67.9835L53.2791 67.0587ZM44.0338 34.3614L41.5068 22.1885L42.819 35.6927L44.0338 34.3614ZM29.7993 66.1104L28.7484 67.0587H33.032L29.7993 66.1104ZM32.9827 52.3778L31.8918 53.4991L28.7484 67.0587L32.9827 52.3778ZM42.0025 20.6681L40.798 22.1885L31.8918 53.4991L42.0025 20.6681ZM28.6757 66.1104L27.6389 67.0587H31.8918L28.6757 66.1104ZM17.6584 20.6681L16.7604 22.1885L27.6389 67.0587L17.6584 20.6681ZM55.7975 66.1104L54.4193 67.0587H58.6721L55.7975 66.1104ZM58.0446 51.7224L56.6382 52.8519L54.4193 67.0587L58.0446 51.7224ZM65.0669 20.6681L63.5721 22.1885L56.6382 52.8519L65.0669 20.6681ZM54.6427 66.1104L53.2791 67.0587H57.5627L54.6427 66.1104ZM45.2796 32.9962L44.0338 34.3614L53.2791 67.0587L45.2796 32.9962ZM42.7203 20.6681L41.5068 22.1885L44.0338 34.3614L42.7203 20.6681ZM34.1375 66.1104H29.7993L33.032 67.0587L34.1375 66.1104ZM29.7993 66.1104L32.9827 52.3778L28.7484 67.0587L29.7993 66.1104ZM32.9827 52.3778L42.0025 20.6681L31.8918 53.4991L32.9827 52.3778ZM32.9827 66.1104H28.6757L31.8918 67.0587L32.9827 66.1104ZM28.6757 66.1104L17.6584 20.6681L27.6389 67.0587L28.6757 66.1104ZM60.1045 66.1104H55.7975L58.6721 67.0587L60.1045 66.1104ZM55.7975 66.1104L58.0446 51.7224L54.4193 67.0587L55.7975 66.1104ZM58.0446 51.7224L65.0669 20.6681L56.6382 52.8519L58.0446 51.7224ZM58.9809 66.1104H54.6427L57.5627 67.0587L58.9809 66.1104ZM54.6427 66.1104L45.2796 32.9962L53.2791 67.0587L54.6427 66.1104ZM45.2796 32.9962L42.7203 20.6681L44.0338 34.3614L45.2796 32.9962ZM30.8773 65.1376L29.7993 66.1104H34.1375L30.8773 65.1376ZM29.7392 65.1376L28.6757 66.1104H32.9827L29.7392 65.1376ZM57.2112 65.1376L55.7975 66.1104H60.1045L57.2112 65.1376ZM56.0415 65.1376L54.6427 66.1104H58.9809L56.0415 65.1376ZM34.1019 51.2277L32.9827 52.3778L29.7993 66.1104L34.1019 51.2277ZM43.2381 19.1085L42.0025 20.6681L32.9827 52.3778L43.2381 19.1085ZM18.5797 19.1085L17.6584 20.6681L28.6757 66.1104L18.5797 19.1085ZM59.4874 50.5638L58.0446 51.7224L55.7975 66.1104L59.4874 50.5638ZM66.6004 19.1085L65.0669 20.6681L58.0446 51.7224L66.6004 19.1085ZM46.5575 31.5958L45.2796 32.9962L54.6427 66.1104L46.5575 31.5958ZM43.9652 19.1085L42.7203 20.6681L45.2796 32.9962L43.9652 19.1085ZM35.2716 65.1376H30.8773L34.1375 66.1104L35.2716 65.1376ZM34.1019 65.1376H29.7392L32.9827 66.1104L34.1019 65.1376ZM61.5739 65.1376H57.2112L60.1045 66.1104L61.5739 65.1376ZM60.4358 65.1376H56.0415L58.9809 66.1104L60.4358 65.1376ZM30.8773 65.1376L34.1019 51.2277L29.7993 66.1104L30.8773 65.1376ZM29.7392 65.1376L18.5797 19.1085L28.6757 66.1104L29.7392 65.1376ZM57.2112 65.1376L59.4874 50.5638L55.7975 66.1104L57.2112 65.1376ZM56.0415 65.1376L46.5575 31.5958L54.6427 66.1104L56.0415 65.1376ZM34.1019 51.2277L43.2381 19.1085L32.9827 52.3778L34.1019 51.2277ZM59.4874 50.5638L66.6004 19.1085L58.0446 51.7224L59.4874 50.5638ZM46.5575 31.5958L43.9652 19.1085L45.2796 32.9962L46.5575 31.5958Z"/>
</mask>
<path d="M36.9435 27.9057L35.8702 29.2503L38.2476 40.7024L36.9435 27.9057ZM24.7967 70.6248L23.8673 71.4635H27.8973L24.7967 70.6248ZM27.7894 57.7152L26.8245 58.7068L23.8673 71.4635L27.7894 57.7152ZM36.2687 27.9057L35.2034 29.2503L26.8245 58.7068L36.2687 27.9057ZM23.7405 70.6248L22.8236 71.4635H26.8245L23.7405 70.6248ZM13.3834 27.9057L12.5892 29.2503L22.8236 71.4635L13.3834 27.9057ZM49.237 70.6248L48.0181 71.4635H52.0191L49.237 70.6248ZM51.3495 57.099L50.1056 58.0979L48.0181 71.4635L51.3495 57.099ZM57.951 27.9057L56.6289 29.2503L50.1056 58.0979L57.951 27.9057ZM48.1514 70.6248L46.9454 71.4635H50.9754L48.1514 70.6248ZM39.3494 39.495L38.2476 40.7024L46.9454 71.4635L39.3494 39.495ZM28.875 70.6248H24.7967L27.8973 71.4635L28.875 70.6248ZM24.7967 70.6248L27.7894 57.7152L23.8673 71.4635L24.7967 70.6248ZM27.7894 57.7152L36.2687 27.9057L26.8245 58.7068L27.7894 57.7152ZM27.7894 70.6248H23.7405L26.8245 71.4635L27.7894 70.6248ZM23.7405 70.6248L13.3834 27.9057L22.8236 71.4635L23.7405 70.6248ZM53.2859 70.6248H49.237L52.0191 71.4635L53.2859 70.6248ZM49.237 70.6248L51.3495 57.099L48.0181 71.4635L49.237 70.6248ZM51.3495 57.099L57.951 27.9057L50.1056 58.0979L51.3495 57.099ZM52.2297 70.6248H48.1514L50.9754 71.4635L52.2297 70.6248ZM48.1514 70.6248L39.3494 39.495L46.9454 71.4635L48.1514 70.6248ZM39.3494 39.495L36.9435 27.9057L38.2476 40.7024L39.3494 39.495ZM25.7487 69.7657L24.7967 70.6248H28.875L25.7487 69.7657ZM28.7777 56.6995L27.7894 57.7152L24.7967 70.6248L28.7777 56.6995ZM37.3598 26.5284L36.2687 27.9057L27.7894 57.7152L37.3598 26.5284ZM24.6796 69.7657L23.7405 70.6248H27.7894L24.6796 69.7657ZM14.1969 26.5284L13.3834 27.9057L23.7405 70.6248L14.1969 26.5284ZM50.4854 69.7657L49.237 70.6248H53.2859L50.4854 69.7657ZM52.6235 56.0759L51.3495 57.099L49.237 70.6248L52.6235 56.0759ZM59.3051 26.5284L57.951 27.9057L51.3495 57.099L59.3051 26.5284ZM49.3867 69.7657L48.1514 70.6248H52.2297L49.3867 69.7657ZM40.4779 38.2583L39.3494 39.495L48.1514 70.6248L40.4779 38.2583ZM38.0428 26.5284L36.9435 27.9057L39.3494 39.495L38.0428 26.5284ZM29.8764 69.7657H25.7487L28.875 70.6248L29.8764 69.7657ZM25.7487 69.7657L28.7777 56.6995L24.7967 70.6248L25.7487 69.7657ZM28.7777 56.6995L37.3598 26.5284L27.7894 57.7152L28.7777 56.6995ZM28.7777 69.7657H24.6796L27.7894 70.6248L28.7777 69.7657ZM24.6796 69.7657L14.1969 26.5284L23.7405 70.6248L24.6796 69.7657ZM54.5835 69.7657H50.4854L53.2859 70.6248L54.5835 69.7657ZM50.4854 69.7657L52.6235 56.0759L49.237 70.6248L50.4854 69.7657ZM52.6235 56.0759L59.3051 26.5284L51.3495 57.099L52.6235 56.0759ZM53.5144 69.7657H49.3867L52.2297 70.6248L53.5144 69.7657ZM49.3867 69.7657L40.4779 38.2583L48.1514 70.6248L49.3867 69.7657ZM40.4779 38.2583L38.0428 26.5284L39.3494 39.495L40.4779 38.2583ZM26.724 68.8856L25.7487 69.7657H29.8764L26.724 68.8856ZM29.7902 55.6589L28.7777 56.6995L25.7487 69.7657L29.7902 55.6589ZM38.4777 25.1173L37.3598 26.5284L28.7777 56.6995L38.4777 25.1173ZM25.6418 68.8856L24.6796 69.7657H28.7777L25.6418 68.8856ZM15.0304 25.1173L14.1969 26.5284L24.6796 69.7657L15.0304 25.1173ZM51.7645 68.8856L50.4854 69.7657H54.5835L51.7645 68.8856ZM53.9289 55.0276L52.6235 56.0759L50.4854 69.7657L53.9289 55.0276ZM60.6925 25.1173L59.3051 26.5284L52.6235 56.0759L60.6925 25.1173ZM50.6523 68.8856L49.3867 69.7657H53.5144L50.6523 68.8856ZM41.6341 36.9912L40.4779 38.2583L49.3867 69.7657L41.6341 36.9912ZM39.1691 25.1173L38.0428 26.5284L40.4779 38.2583L39.1691 25.1173ZM30.9024 68.8856H26.724L29.8764 69.7657L30.9024 68.8856ZM26.724 68.8856L29.7902 55.6589L25.7487 69.7657L26.724 68.8856ZM29.7902 55.6589L38.4777 25.1173L28.7777 56.6995L29.7902 55.6589ZM29.7902 68.8856H25.6418L28.7777 69.7657L29.7902 68.8856ZM25.6418 68.8856L15.0304 25.1173L24.6796 69.7657L25.6418 68.8856ZM55.9129 68.8856H51.7645L54.5835 69.7657L55.9129 68.8856ZM51.7645 68.8856L53.9289 55.0276L50.4854 69.7657L51.7645 68.8856ZM53.9289 55.0276L60.6925 25.1173L52.6235 56.0759L53.9289 55.0276ZM54.8307 68.8856H50.6523L53.5144 69.7657L54.8307 68.8856ZM50.6523 68.8856L41.6341 36.9912L49.3867 69.7657L50.6523 68.8856ZM41.6341 36.9912L39.1691 25.1173L40.4779 38.2583L41.6341 36.9912ZM27.7236 67.9835L26.724 68.8856H30.9024L27.7236 67.9835ZM30.8279 54.5924L29.7902 55.6589L26.724 68.8856L30.8279 54.5924ZM39.6234 23.6711L38.4777 25.1173L29.7902 55.6589L39.6234 23.6711ZM26.628 67.9835L25.6418 68.8856H29.7902L26.628 67.9835ZM15.8847 23.6711L15.0304 25.1173L25.6418 68.8856L15.8847 23.6711ZM53.0754 67.9835L51.7645 68.8856H55.9129L53.0754 67.9835ZM55.2667 53.9533L53.9289 55.0276L51.7645 68.8856L55.2667 53.9533ZM62.1144 23.6711L60.6925 25.1173L53.9289 55.0276L62.1144 23.6711ZM51.9493 67.9835L50.6523 68.8856H54.8307L51.9493 67.9835ZM42.819 35.6927L41.6341 36.9912L50.6523 68.8856L42.819 35.6927ZM40.3234 23.6711L39.1691 25.1173L41.6341 36.9912L40.3234 23.6711ZM31.954 67.9835H27.7236L30.9024 68.8856L31.954 67.9835ZM27.7236 67.9835L30.8279 54.5924L26.724 68.8856L27.7236 67.9835ZM30.8279 67.9835H26.628L29.7902 68.8856L30.8279 67.9835ZM57.2753 67.9835H53.0754L55.9129 68.8856L57.2753 67.9835ZM53.0754 67.9835L55.2667 53.9533L51.7645 68.8856L53.0754 67.9835ZM56.1797 67.9835H51.9493L54.8307 68.8856L56.1797 67.9835ZM51.9493 67.9835L42.819 35.6927L50.6523 68.8856L51.9493 67.9835ZM30.8279 54.5924L39.6234 23.6711L29.7902 55.6589L30.8279 54.5924ZM26.628 67.9835L15.8847 23.6711L25.6418 68.8856L26.628 67.9835ZM55.2667 53.9533L62.1144 23.6711L53.9289 55.0276L55.2667 53.9533ZM42.819 35.6927L40.3234 23.6711L41.6341 36.9912L42.819 35.6927ZM28.7484 67.0587L27.7236 67.9835H31.954L28.7484 67.0587ZM31.8918 53.4991L30.8279 54.5924L27.7236 67.9835L31.8918 53.4991ZM27.6389 67.0587L26.628 67.9835H30.8279L27.6389 67.0587ZM54.4193 67.0587L53.0754 67.9835H57.2753L54.4193 67.0587ZM56.6382 52.8519L55.2667 53.9533L53.0754 67.9835L56.6382 52.8519ZM53.2791 67.0587L51.9493 67.9835H56.1797L53.2791 67.0587ZM44.0338 34.3614L42.819 35.6927L51.9493 67.9835L44.0338 34.3614ZM40.798 22.1885L39.6234 23.6711L30.8279 54.5924L40.798 22.1885ZM16.7604 22.1885L15.8847 23.6711L26.628 67.9835L16.7604 22.1885ZM63.5721 22.1885L62.1144 23.6711L55.2667 53.9533L63.5721 22.1885ZM41.5068 22.1885L40.3234 23.6711L42.819 35.6927L41.5068 22.1885ZM33.032 67.0587H28.7484L31.954 67.9835L33.032 67.0587ZM28.7484 67.0587L31.8918 53.4991L27.7236 67.9835L28.7484 67.0587ZM31.8918 53.4991L40.798 22.1885L30.8279 54.5924L31.8918 53.4991ZM31.8918 67.0587H27.6389L30.8279 67.9835L31.8918 67.0587ZM27.6389 67.0587L16.7604 22.1885L26.628 67.9835L27.6389 67.0587ZM58.6721 67.0587H54.4193L57.2753 67.9835L58.6721 67.0587ZM54.4193 67.0587L56.6382 52.8519L53.0754 67.9835L54.4193 67.0587ZM56.6382 52.8519L63.5721 22.1885L55.2667 53.9533L56.6382 52.8519ZM57.5627 67.0587H53.2791L56.1797 67.9835L57.5627 67.0587ZM53.2791 67.0587L44.0338 34.3614L51.9493 67.9835L53.2791 67.0587ZM44.0338 34.3614L41.5068 22.1885L42.819 35.6927L44.0338 34.3614ZM29.7993 66.1104L28.7484 67.0587H33.032L29.7993 66.1104ZM32.9827 52.3778L31.8918 53.4991L28.7484 67.0587L32.9827 52.3778ZM42.0025 20.6681L40.798 22.1885L31.8918 53.4991L42.0025 20.6681ZM28.6757 66.1104L27.6389 67.0587H31.8918L28.6757 66.1104ZM17.6584 20.6681L16.7604 22.1885L27.6389 67.0587L17.6584 20.6681ZM55.7975 66.1104L54.4193 67.0587H58.6721L55.7975 66.1104ZM58.0446 51.7224L56.6382 52.8519L54.4193 67.0587L58.0446 51.7224ZM65.0669 20.6681L63.5721 22.1885L56.6382 52.8519L65.0669 20.6681ZM54.6427 66.1104L53.2791 67.0587H57.5627L54.6427 66.1104ZM45.2796 32.9962L44.0338 34.3614L53.2791 67.0587L45.2796 32.9962ZM42.7203 20.6681L41.5068 22.1885L44.0338 34.3614L42.7203 20.6681ZM34.1375 66.1104H29.7993L33.032 67.0587L34.1375 66.1104ZM29.7993 66.1104L32.9827 52.3778L28.7484 67.0587L29.7993 66.1104ZM32.9827 52.3778L42.0025 20.6681L31.8918 53.4991L32.9827 52.3778ZM32.9827 66.1104H28.6757L31.8918 67.0587L32.9827 66.1104ZM28.6757 66.1104L17.6584 20.6681L27.6389 67.0587L28.6757 66.1104ZM60.1045 66.1104H55.7975L58.6721 67.0587L60.1045 66.1104ZM55.7975 66.1104L58.0446 51.7224L54.4193 67.0587L55.7975 66.1104ZM58.0446 51.7224L65.0669 20.6681L56.6382 52.8519L58.0446 51.7224ZM58.9809 66.1104H54.6427L57.5627 67.0587L58.9809 66.1104ZM54.6427 66.1104L45.2796 32.9962L53.2791 67.0587L54.6427 66.1104ZM45.2796 32.9962L42.7203 20.6681L44.0338 34.3614L45.2796 32.9962ZM30.8773 65.1376L29.7993 66.1104H34.1375L30.8773 65.1376ZM29.7392 65.1376L28.6757 66.1104H32.9827L29.7392 65.1376ZM57.2112 65.1376L55.7975 66.1104H60.1045L57.2112 65.1376ZM56.0415 65.1376L54.6427 66.1104H58.9809L56.0415 65.1376ZM34.1019 51.2277L32.9827 52.3778L29.7993 66.1104L34.1019 51.2277ZM43.2381 19.1085L42.0025 20.6681L32.9827 52.3778L43.2381 19.1085ZM18.5797 19.1085L17.6584 20.6681L28.6757 66.1104L18.5797 19.1085ZM59.4874 50.5638L58.0446 51.7224L55.7975 66.1104L59.4874 50.5638ZM66.6004 19.1085L65.0669 20.6681L58.0446 51.7224L66.6004 19.1085ZM46.5575 31.5958L45.2796 32.9962L54.6427 66.1104L46.5575 31.5958ZM43.9652 19.1085L42.7203 20.6681L45.2796 32.9962L43.9652 19.1085ZM35.2716 65.1376H30.8773L34.1375 66.1104L35.2716 65.1376ZM34.1019 65.1376H29.7392L32.9827 66.1104L34.1019 65.1376ZM61.5739 65.1376H57.2112L60.1045 66.1104L61.5739 65.1376ZM60.4358 65.1376H56.0415L58.9809 66.1104L60.4358 65.1376ZM30.8773 65.1376L34.1019 51.2277L29.7993 66.1104L30.8773 65.1376ZM29.7392 65.1376L18.5797 19.1085L28.6757 66.1104L29.7392 65.1376ZM57.2112 65.1376L59.4874 50.5638L55.7975 66.1104L57.2112 65.1376ZM56.0415 65.1376L46.5575 31.5958L54.6427 66.1104L56.0415 65.1376ZM34.1019 51.2277L43.2381 19.1085L32.9827 52.3778L34.1019 51.2277ZM59.4874 50.5638L66.6004 19.1085L58.0446 51.7224L59.4874 50.5638ZM46.5575 31.5958L43.9652 19.1085L45.2796 32.9962L46.5575 31.5958Z" fill="#00957D" stroke="black" stroke-width="0.449612" mask="url(#path-2-inside-1_28_30)"/>
<path d="M31.0471 65.0252L33.2073 59.9317L33.9714 65.0252H31.0471ZM33.1435 59.5064L31.4053 63.6048L32.915 57.983L33.1435 59.5064ZM32.9775 56.8837L32.9494 56.6968L34.2107 51.2558L39.1835 33.7737L32.9775 56.8837ZM33.0609 57.4398L43.2067 19.6589L44.9875 31.581L33.3115 59.1105L33.0609 57.4398ZM33.3753 59.5358L44.4509 33.4218L35.1874 65.0252H34.1987L33.3753 59.5358ZM32.8316 57.4268L32.4557 58.8268L32.8114 57.2921L32.8316 57.4268ZM31.5208 49.3637L18.7494 19.2209H24.5601L31.5208 49.3637ZM31.8047 50.6101L29.7132 64.5532L19.0134 20.4201L31.8047 50.6101ZM29.8698 65.0252L31.9206 51.3531L32.7207 56.6878L30.788 65.0252H29.8698ZM45.1207 30.9514L43.3686 19.2209H43.8738L45.7112 28.0719L45.1207 30.9514ZM58.6055 57.7399L58.0715 60.3577L58.5308 57.4174L58.6055 57.7399ZM57.3489 65.0252L58.7276 58.2664L60.2944 65.0252H57.3489ZM72.559 19.2209L61.8754 63.4121L66.7012 19.2209H72.559ZM45.8253 27.5155L44.9557 23.3264L45.926 27.0247L45.8253 27.5155ZM46.6668 31.569L45.9407 28.0716L46.0548 27.5156L52.927 53.7093L46.6668 31.569ZM55.9843 64.4766L46.1567 27.0184L46.4719 25.4815L57.097 51.2454L55.9843 64.4766ZM56.6096 49.4739L46.5527 25.0876L47.7557 19.2209H48.2424L56.6096 49.4739ZM44.1332 19.2209H47.5262L46.3994 24.716L44.1332 19.2209ZM46.3186 25.1098L46.0279 26.5275L44.4973 20.6934L46.3186 25.1098ZM56.1638 65.0252L57.2633 51.95L58.3948 56.831L57.115 65.0252H56.1638ZM58.7135 57.2104L58.6237 56.8227L59.5979 50.5849L64.3677 29.4916L58.7135 57.2104ZM58.8356 57.7369L66.2249 21.5118L61.4731 65.0252H60.5251L58.8356 57.7369Z" fill="#00A68B" stroke="black" stroke-width="0.224806"/>
<g filter="url(#filter1_d_28_30)">
<path d="M34.3111 50.4854L43.4473 18.3663H47.8732L45.3125 30.8535L35.4807 64.3953H31.0865L34.3111 50.4854ZM24.8587 18.3663L32.1297 49.8532L34.3111 64.3953H29.9484L18.7889 18.3663H24.8587ZM59.6966 49.8216L66.8096 18.3663H72.911L61.7831 64.3953H57.4204L59.6966 49.8216ZM48.5371 18.3663L57.4204 50.4854L60.645 64.3953H56.2507L46.7667 30.8535L44.1744 18.3663H48.5371Z" fill="#FF6700"/>
<path d="M34.3111 50.4854L33.8786 50.3624L33.8731 50.3839L34.3111 50.4854ZM43.4473 18.3663V17.9166L43.0149 18.2432L43.4473 18.3663ZM47.8732 18.3663L48.3136 18.4566L47.8732 17.9166V18.3663ZM45.3125 30.8535L45.744 30.98L45.753 30.9439L45.3125 30.8535ZM35.4807 64.3953V64.8449L35.9122 64.5218L35.4807 64.3953ZM31.0865 64.3953L30.6485 64.2938L31.0865 64.8449V64.3953ZM24.8587 18.3663L25.2967 18.2651L24.8587 17.9166V18.3663ZM32.1297 49.8532L32.5744 49.7865L32.5678 49.752L32.1297 49.8532ZM34.3111 64.3953V64.8449L34.7557 64.3286L34.3111 64.3953ZM29.9484 64.3953L29.5115 64.5013L29.9484 64.8449V64.3953ZM18.7889 18.3663V17.9166L18.3519 18.4722L18.7889 18.3663ZM59.6966 49.8216L59.2581 49.7224L59.2524 49.7522L59.6966 49.8216ZM66.8096 18.3663V17.9166L66.3711 18.2671L66.8096 18.3663ZM72.911 18.3663L73.348 18.4719L72.911 17.9166V18.3663ZM61.7831 64.3953V64.8449L62.2201 64.501L61.7831 64.3953ZM57.4204 64.3953L56.9762 64.3259L57.4204 64.8449V64.3953ZM48.5371 18.3663L48.9704 18.2464L48.5371 17.9166V18.3663ZM57.4204 50.4854L57.8584 50.3839L57.8538 50.3656L57.4204 50.4854ZM60.645 64.3953V64.8449L61.083 64.2938L60.645 64.3953ZM56.2507 64.3953L55.8181 64.5177L56.2507 64.8449V64.3953ZM46.7667 30.8535L46.3265 30.9449L46.3341 30.9759L46.7667 30.8535ZM44.1744 18.3663V17.9166L43.7342 18.4576L44.1744 18.3663ZM34.7435 50.6085L43.8798 18.4893L43.0149 18.2432L33.8786 50.3624L34.7435 50.6085ZM43.4473 18.8159H47.8732V17.9166H43.4473V18.8159ZM47.4327 18.2759L44.8721 30.7632L45.753 30.9439L48.3136 18.4566L47.4327 18.2759ZM44.8811 30.7271L35.0493 64.2689L35.9122 64.5218L45.744 30.98L44.8811 30.7271ZM35.4807 63.9457H31.0865V64.8449H35.4807V63.9457ZM31.5245 64.4969L34.7491 50.587L33.8731 50.3839L30.6485 64.2938L31.5245 64.4969ZM24.4206 18.4674L31.6916 49.9543L32.5678 49.752L25.2967 18.2651L24.4206 18.4674ZM31.6851 49.9199L33.8664 64.462L34.7557 64.3286L32.5744 49.7865L31.6851 49.9199ZM34.3111 63.9457H29.9484V64.8449H34.3111V63.9457ZM30.3854 64.2894L19.2258 18.2603L18.3519 18.4722L29.5115 64.5013L30.3854 64.2894ZM18.7889 18.8159H24.8587V17.9166H18.7889V18.8159ZM60.1351 49.9207L67.2481 18.4654L66.3711 18.2671L59.2581 49.7224L60.1351 49.9207ZM66.8096 18.8159H72.911V17.9166H66.8096V18.8159ZM72.474 18.2606L61.3461 64.2897L62.2201 64.501L73.348 18.4719L72.474 18.2606ZM61.7831 63.9457H57.4204V64.8449H61.7831V63.9457ZM57.8647 64.4647L60.1408 49.8909L59.2524 49.7522L56.9762 64.3259L57.8647 64.4647ZM48.1037 18.4861L56.9871 50.6053L57.8538 50.3656L48.9704 18.2464L48.1037 18.4861ZM56.9824 50.587L60.207 64.4969L61.083 64.2938L57.8584 50.3839L56.9824 50.587ZM60.645 63.9457H56.2507V64.8449H60.645V63.9457ZM56.6834 64.273L47.1994 30.7312L46.3341 30.9759L55.8181 64.5177L56.6834 64.273ZM47.207 30.7621L44.6147 18.2749L43.7342 18.4576L46.3265 30.9449L47.207 30.7621ZM44.1744 18.8159H48.5371V17.9166H44.1744V18.8159Z" fill="black"/>
</g>
</g>
<defs>
<filter id="filter0_d_28_30" x="-1.30231" y="1.34885" width="89.6047" height="89.6046" filterUnits="userSpaceOnUse" color-interpolation-filters="sRGB">
<feFlood flood-opacity="0" result="BackgroundImageFix"/>
<feColorMatrix in="SourceAlpha" type="matrix" values="0 0 0 0 0 0 0 0 0 0 0 0 0 0 0 0 0 0 127 0" result="hardAlpha"/>
<feOffset dy="4"/>
<feGaussianBlur stdDeviation="2"/>
<feComposite in2="hardAlpha" operator="out"/>
<feColorMatrix type="matrix" values="0 0 0 0 0 0 0 0 0 0 0 0 0 0 0 0 0 0 0.25 0"/>
<feBlend mode="normal" in2="BackgroundImageFix" result="effect1_dropShadow_28_30"/>
<feBlend mode="normal" in="SourceGraphic" in2="effect1_dropShadow_28_30" result="shape"/>
</filter>
<filter id="filter1_d_28_30" x="17.8897" y="18.3662" width="55.9206" height="47.8275" filterUnits="userSpaceOnUse" color-interpolation-filters="sRGB">
<feFlood flood-opacity="0" result="BackgroundImageFix"/>
<feColorMatrix in="SourceAlpha" type="matrix" values="0 0 0 0 0 0 0 0 0 0 0 0 0 0 0 0 0 0 127 0" result="hardAlpha"/>
<feOffset dy="0.899225"/>
<feGaussianBlur stdDeviation="0.449612"/>
<feComposite in2="hardAlpha" operator="out"/>
<feColorMatrix type="matrix" values="0 0 0 0 0 0 0 0 0 0 0 0 0 0 0 0 0 0 0.25 0"/>
<feBlend mode="normal" in2="BackgroundImageFix" result="effect1_dropShadow_28_30"/>
<feBlend mode="normal" in="SourceGraphic" in2="effect1_dropShadow_28_30" result="shape"/>
</filter>
<clipPath id="clip0_28_30">
<rect width="87" height="87" fill="white"/>
</clipPath>
</defs>
</svg>
